# xmcd CD database file
#
# Track frame offsets:
#	150
#	11132
#	25162
#	36040
#	49251
#	62494
#	76405
#	89109
#	101875
#	115344
#	127342
#	137902
#	153031
#	166068
#	179936
#	189455
#	204351
#	228170
#	244534
#	258425
#	271291
#	287970
#	299113
#	312169
#	326574
#	338671
#
# Disc length: 4690 seconds
#
# Revision: 0
# Processed by: cddbd v1.5PL3 Copyright (c) Steve Scherf et al.
# Submitted via: CDex 1.51
#
DISCID=8612501a
DTITLE=Rob Hoeke Rhythm and Blues Group - Singles A's and B's                                    Disc 1
DYEAR=2004
DGENRE=Blues
TTITLE0=Swannee river boogie
TTITLE1=Honky tonk train blues
TTITLE2=Screamin'
TTITLE3=Boogie woogie stomp
TTITLE4=Down south (part 1)
TTITLE5=Oh baby please
TTITLE6=Margio
TTITLE7=When people talk
TTITLE8=What is soul?
TTITLE9=Baby don't go
TTITLE10=Jolita-instrumental
TTITLE11=Drinking on my bed
TTITLE12=Try to realize
TTITLE13=Lying in the grass
TTITLE14=For my little gringo
TTITLE15=Double cross woman
TTITLE16=Next world war
TTITLE17=Racing the boogie
TTITLE18=Everybody tries
TTITLE19=Small talk to my son
TTITLE20=That's the boogie
TTITLE21=Gettin' higher
TTITLE22=Rock around the clock
TTITLE23=Fingerprints
TTITLE24=I almost lost my mind
TTITLE25=Lucky Lucinda
EXTD=YEAR: 2004
EXTT0=
EXTT1=
EXTT2=
EXTT3=
EXTT4=
EXTT5=
EXTT6=
EXTT7=
EXTT8=
EXTT9=
EXTT10=
EXTT11=
EXTT12=
EXTT13=
EXTT14=
EXTT15=
EXTT16=
EXTT17=
EXTT18=
EXTT19=
EXTT20=
EXTT21=
EXTT22=
EXTT23=
EXTT24=
EXTT25=
PLAYORDER=
